<?xml version="1.0" standalone="no"?>
<!DOCTYPE svg PUBLIC "-//W3C//DTD SVG 20010904//EN"
 "http://www.w3.org/TR/2001/REC-SVG-20010904/DTD/svg10.dtd">
<svg version="1.0" xmlns="http://www.w3.org/2000/svg"
 width="3200.000000pt" height="3200.000000pt" viewBox="0 0 3200.000000 3200.000000"
 preserveAspectRatio="xMidYMid meet">

<g transform="translate(0.000000,3200.000000) scale(0.100000,-0.100000)"
fill="#000000" stroke="none">
<path d="M15856 31380 c-450 -71 -794 -407 -870 -849 -96 -559 282 -1089 843
-1185 224 -38 443 -3 651 105 254 132 440 368 517 657 23 84 26 117 26 252 0
135 -3 168 -26 252 -50 188 -136 339 -271 474 -190 190 -422 290 -691 299 -66
2 -147 0 -179 -5z m330 -300 c136 -34 236 -91 339 -195 101 -101 152 -181 192
-300 24 -71 27 -96 27 -215 1 -155 -19 -245 -79 -360 -170 -322 -545 -464
-906 -344 -308 102 -503 398 -486 738 9 192 74 334 222 481 102 102 202 160
335 195 103 26 252 26 356 0z"/>
<path d="M15883 30895 c-149 -32 -297 -145 -361 -273 -89 -180 -80 -404 24
-560 102 -154 252 -240 434 -249 430 -23 712 417 518 809 -42 84 -142 183
-230 226 -120 59 -255 75 -385 47z m184 -60 c23 -16 48 -78 38 -94 -3 -6 14
-18 37 -29 48 -21 104 -79 114 -118 9 -37 -18 -88 -55 -104 -38 -15 -75 -7
-107 25 -20 20 -35 25 -79 25 -45 0 -55 -3 -60 -20 -3 -11 -4 -24 -1 -29 3 -5
47 -25 98 -46 113 -45 141 -64 173 -119 31 -53 41 -118 25 -175 -13 -49 -76
-123 -121 -141 -22 -9 -28 -17 -24 -31 8 -24 -19 -85 -43 -98 -29 -16 -84 -14
-109 4 -23 16 -48 78 -38 94 3 6 -14 18 -37 29 -48 21 -104 79 -114 117 -9 36
14 83 49 101 39 20 90 11 116 -21 16 -21 27 -25 74 -25 47 0 57 3 62 20 3 11
4 24 1 29 -3 5 -48 25 -98 46 -109 43 -151 73 -177 123 -57 113 -19 248 85
303 29 16 42 29 39 38 -9 22 14 79 38 96 12 8 37 15 57 15 20 0 45 -7 57 -15z"/>
<path d="M17373 30724 c46 -153 58 -459 24 -627 -51 -252 -175 -503 -336 -679
-34 -36 -61 -68 -61 -71 0 -3 33 -8 73 -12 116 -11 409 -57 602 -95 109 -21
472 -108 565 -136 185 -54 380 -116 425 -134 11 -5 67 -25 125 -45 58 -21 123
-46 145 -55 23 -10 53 -22 68 -25 15 -4 30 -11 33 -16 3 -5 12 -9 21 -9 9 0
34 -9 57 -19 23 -11 64 -29 91 -41 28 -12 62 -28 77 -36 14 -8 33 -14 41 -14
9 0 17 -4 19 -9 2 -4 14 -12 27 -16 43 -13 14 10 -61 48 -41 21 -88 50 -104
63 l-29 25 34 -5 c104 -18 564 -233 856 -400 308 -177 680 -436 968 -675 72
-59 131 -115 137 -132 8 -18 10 -46 6 -73 -7 -41 -4 -48 26 -81 l33 -36 503
504 504 504 -104 94 c-236 217 -521 447 -798 645 -74 52 -435 291 -496 329
-139 83 -190 113 -314 183 -291 163 -657 339 -975 469 -284 116 -743 273 -970
333 -287 75 -475 121 -620 149 -128 25 -438 82 -520 94 -16 3 -41 8 -54 13
-20 6 -22 4 -18 -12z"/>
<path d="M14420 30649 c-245 -53 -551 -125 -655 -155 -482 -137 -960 -306
-1265 -446 -25 -11 -85 -38 -135 -60 -163 -72 -572 -279 -708 -360 -26 -15
-50 -28 -52 -28 -6 0 -193 -112 -340 -205 -448 -281 -966 -678 -1317 -1010
-75 -71 -76 -74 -58 -90 16 -15 31 -17 83 -11 55 5 69 3 105 -16 43 -23 631
-592 719 -695 l48 -56 -2 -87 c-2 -72 1 -90 15 -103 16 -13 31 -3 177 125 523
458 1046 810 1660 1116 99 49 200 99 225 110 129 58 177 78 305 132 144 59
198 80 415 156 373 132 893 263 1260 319 63 10 121 19 129 21 9 3 -8 28 -51
72 -189 198 -310 429 -370 705 -27 127 -30 406 -6 525 l15 72 -31 -1 c-17 -1
-92 -14 -166 -30z"/>
<path d="M15655 28934 c-617 -40 -1100 -124 -1685 -296 -591 -173 -1250 -484
-1814 -856 -1210 -797 -2165 -1993 -2674 -3347 -248 -660 -379 -1264 -432
-1984 -39 -526 -15 -1045 74 -1621 80 -507 274 -1170 481 -1635 58 -129 70
-155 146 -310 805 -1643 2274 -2932 4010 -3518 581 -197 1178 -315 1794 -357
191 -12 706 -13 895 0 733 49 1479 217 2129 479 153 62 182 74 316 134 259
116 635 323 900 495 1323 859 2326 2152 2818 3632 36 107 75 231 87 275 12 44
28 100 35 125 15 49 72 288 99 410 49 225 104 636 127 945 18 242 23 616 10
770 -6 77 -16 196 -21 265 -30 395 -92 763 -195 1165 -25 97 -52 198 -60 223
-8 26 -28 92 -45 147 -168 542 -453 1151 -771 1646 -108 168 -177 267 -302
434 -393 524 -870 1000 -1392 1390 -455 339 -905 601 -1410 819 -99 43 -193
84 -210 91 -64 28 -382 138 -522 181 -228 69 -510 140 -698 174 -314 57 -415
72 -705 101 -145 15 -288 21 -560 23 -201 2 -392 2 -425 0z m3230 -1369 c14
-13 25 -30 25 -38 0 -8 7 -58 15 -113 9 -54 20 -130 25 -169 11 -85 33 -236
65 -455 52 -351 115 -815 115 -847 0 -40 15 -44 24 -5 4 15 23 79 42 142 19
63 46 151 59 195 76 257 97 315 118 330 32 22 550 22 604 0 21 -9 40 -21 44
-27 9 -14 -7 -60 -24 -70 -7 -4 -128 -8 -269 -8 -287 0 -279 2 -298 -73 -31
-121 -229 -808 -242 -842 -23 -58 -78 -73 -116 -32 -22 24 -30 62 -72 367 -11
80 -41 292 -65 455 -18 123 -71 499 -91 655 -9 63 -19 131 -23 150 -8 35 -8
34 -30 -40 -12 -41 -27 -88 -32 -105 -12 -40 -52 -172 -77 -260 -67 -229 -73
-245 -97 -261 -21 -13 -66 -15 -344 -12 -175 2 -323 6 -326 10 -11 10 2 52 24
79 l19 24 274 3 274 3 43 152 c24 84 52 181 61 217 16 57 142 496 156 543 9
28 45 57 71 57 13 0 35 -11 48 -25z m-5950 -329 c189 -60 349 -202 432 -382
15 -33 36 -99 48 -149 l21 -90 160 -13 c296 -23 453 -59 462 -105 3 -16 -21
-17 -312 -17 l-316 0 -5 -27 c-21 -99 -31 -128 -72 -213 -38 -79 -59 -108
-132 -180 -136 -135 -275 -197 -462 -207 -131 -7 -230 12 -344 67 -431 208
-539 764 -217 1121 94 104 229 181 377 215 93 21 261 12 360 -20z m4438 -80
c39 -16 82 -61 96 -99 8 -19 11 -287 11 -827 l0 -800 813 -2 812 -3 38 -23
c20 -13 48 -43 62 -66 l25 -43 0 -1338 0 -1339 -21 -43 c-15 -30 -35 -52 -67
-71 -46 -26 -52 -27 -236 -32 l-190 -5 -12 -45 c-22 -83 -81 -194 -157 -296
-129 -173 -288 -303 -526 -431 -174 -94 -257 -127 -456 -180 -33 -9 -61 -17
-63 -18 -2 -2 20 -42 48 -90 51 -85 73 -140 122 -295 20 -66 23 -95 23 -240
l0 -165 -44 -125 c-69 -202 -177 -366 -334 -511 l-61 -56 39 -40 c117 -117
241 -308 308 -473 15 -36 42 -129 62 -207 34 -137 35 -149 35 -328 0 -163 -3
-198 -24 -283 -13 -53 -27 -114 -30 -135 -15 -82 -100 -297 -162 -404 -49 -86
-186 -255 -285 -353 -121 -119 -244 -228 -287 -253 -29 -17 -31 -21 -19 -36
44 -52 107 -196 136 -310 28 -112 31 -138 31 -281 0 -176 -21 -307 -78 -485
-16 -50 -122 -255 -171 -333 -53 -83 -172 -240 -271 -357 -49 -58 -70 -91 -75
-120 -17 -92 -118 -238 -207 -303 -27 -19 -74 -40 -105 -48 -66 -15 -221 -18
-273 -5 -19 5 -46 12 -60 15 -90 20 -254 211 -274 319 -5 25 -26 60 -65 105
-106 123 -277 356 -332 452 -106 183 -146 275 -179 410 -10 41 -26 102 -34
135 -20 80 -21 338 -1 415 7 30 22 89 33 131 11 44 41 116 73 174 30 55 55
103 57 106 2 4 -24 28 -57 54 -82 62 -229 190 -266 230 -168 182 -238 282
-331 471 -49 100 -74 167 -101 271 l-36 138 -1 275 c0 234 3 284 18 335 9 33
25 89 35 125 42 151 218 438 343 557 l33 32 -110 115 c-160 167 -245 308 -303
506 -23 79 -23 422 0 500 41 137 82 230 136 303 28 40 32 51 21 58 -8 5 -18 9
-24 9 -13 0 -197 57 -265 82 -74 28 -238 106 -275 133 -16 11 -43 27 -60 34
-95 41 -359 292 -442 421 -41 63 -94 174 -134 278 -8 21 -12 22 -156 22 -214
1 -272 19 -313 100 -20 38 -20 64 -20 1380 0 1325 0 1341 20 1380 11 22 39 52
62 67 l42 28 808 3 808 2 0 800 c0 540 3 808 11 827 14 37 57 82 94 99 45 20
2691 20 2738 0z m-6661 -2606 c57 -16 119 -69 150 -129 85 -163 -37 -361 -222
-361 -190 0 -312 211 -216 374 59 101 175 147 288 116z m10598 -11 c60 -27 98
-64 126 -124 78 -164 -43 -355 -226 -355 -139 0 -250 111 -250 250 0 62 27
129 68 174 67 72 192 96 282 55z m-10513 -731 l23 -21 0 -2806 0 -2805 -22
-23 c-20 -22 -28 -23 -162 -23 -130 0 -141 2 -163 22 l-23 21 0 2806 0 2805
22 23 c20 22 28 23 162 23 130 0 141 -2 163 -22z m10580 0 l23 -21 0 -2806 0
-2805 -22 -23 c-20 -22 -28 -23 -162 -23 -130 0 -141 2 -163 22 l-23 21 0
2806 0 2805 22 23 c20 22 28 23 162 23 130 0 141 -2 163 -22z m-11229 -1095
c157 -97 161 -325 6 -423 -119 -75 -273 -38 -349 84 -26 44 -30 58 -30 125 0
65 4 83 28 123 52 89 132 131 235 124 47 -3 75 -11 110 -33z m1222 16 c60 -27
98 -64 126 -124 59 -125 6 -271 -121 -331 -164 -78 -355 44 -355 226 0 178
189 302 350 229z m9320 0 c60 -27 98 -64 126 -124 78 -164 -43 -355 -226 -355
-139 0 -250 111 -250 250 0 62 27 129 68 174 67 72 192 96 282 55z m1250 0
c60 -27 98 -64 126 -124 78 -164 -43 -355 -226 -355 -139 0 -250 111 -250 250
0 62 27 129 68 174 67 72 192 96 282 55z m-11765 -574 l25 -24 0 -1467 0
-1468 -22 -23 c-20 -22 -28 -23 -162 -23 -130 0 -141 2 -163 22 l-23 21 0
1469 0 1469 25 24 c23 24 29 25 160 25 131 0 137 -1 160 -25z m11822 3 l23
-21 0 -1471 0 -1470 -22 -23 c-20 -22 -28 -23 -158 -23 -124 0 -140 2 -164 21
l-26 20 0 1472 0 1471 22 23 c20 22 28 23 162 23 130 0 141 -2 163 -22z
m-10580 -10 l23 -21 0 -2356 0 -2355 -22 -23 c-20 -22 -28 -23 -162 -23 -130
0 -141 2 -163 22 l-23 21 0 2356 0 2355 22 23 c20 22 28 23 162 23 130 0 141
-2 163 -22z m9330 0 l23 -21 0 -2356 0 -2355 -22 -23 c-20 -22 -28 -23 -162
-23 -130 0 -141 2 -163 22 l-23 21 0 2354 0 2354 25 24 c23 24 29 25 161 25
128 0 139 -2 161 -22z m-8147 -599 c60 -27 98 -64 126 -124 78 -164 -43 -355
-226 -355 -139 0 -250 111 -250 250 0 62 27 129 68 174 67 72 192 96 282 55z
m6850 0 c60 -27 98 -64 126 -124 78 -164 -43 -355 -226 -355 -139 0 -250 111
-250 250 0 62 27 129 68 174 67 72 192 96 282 55z m-7403 -251 l23 -21 0
-2251 0 -2250 -22 -23 c-20 -22 -28 -23 -162 -23 -130 0 -141 2 -163 22 l-23
21 0 2251 0 2250 22 23 c20 22 28 23 162 23 130 0 141 -2 163 -22z m8080 0
l23 -21 0 -2251 0 -2250 -22 -23 c-20 -22 -28 -23 -162 -23 -130 0 -141 2
-163 22 l-23 21 0 2251 0 2250 22 23 c20 22 28 23 162 23 130 0 141 -2 163
-22z m-7470 -670 l23 -21 0 -2151 0 -2150 -22 -23 c-20 -22 -28 -23 -162 -23
-130 0 -141 2 -163 22 l-23 21 0 2151 0 2150 22 23 c20 22 28 23 162 23 130 0
141 -2 163 -22z m6860 0 l23 -21 0 -2151 0 -2150 -22 -23 c-20 -22 -28 -23
-162 -23 -130 0 -141 2 -163 22 l-23 21 0 2151 0 2150 22 23 c20 22 28 23 162
23 130 0 141 -2 163 -22z m-6287 -1379 c197 -89 200 -365 5 -455 -164 -77
-355 44 -355 226 0 178 189 302 350 229z m5600 0 c60 -27 98 -64 126 -124 78
-164 -43 -355 -226 -355 -139 0 -250 111 -250 250 0 62 27 129 68 174 67 72
192 96 282 55z m-5553 -831 l23 -21 0 -1266 0 -1265 -22 -23 c-20 -22 -28 -23
-162 -23 -130 0 -141 2 -163 22 l-23 21 0 1266 0 1265 22 23 c20 22 28 23 162
23 130 0 141 -2 163 -22z m5610 0 l23 -21 0 -1266 0 -1265 -22 -23 c-20 -22
-28 -23 -162 -23 -130 0 -141 2 -163 22 l-23 21 0 1266 0 1265 22 23 c20 22
28 23 162 23 130 0 141 -2 163 -22z m-4980 -910 l23 -21 0 -946 0 -945 -22
-23 c-20 -22 -28 -23 -162 -23 -130 0 -141 2 -163 22 l-23 21 0 946 0 945 22
23 c20 22 28 23 162 23 130 0 141 -2 163 -22z m4360 0 l23 -21 0 -946 0 -945
-22 -23 c-20 -22 -28 -23 -162 -23 -130 0 -141 2 -163 22 l-23 21 0 946 0 945
22 23 c20 22 28 23 162 23 130 0 141 -2 163 -22z"/>
<path d="M12596 27124 c-331 -71 -529 -415 -424 -737 55 -168 189 -304 359
-364 103 -36 252 -38 354 -4 173 57 315 194 370 356 34 101 40 193 21 291 -46
237 -215 410 -448 458 -93 19 -141 19 -232 0z m230 -301 c66 -22 145 -101 167
-167 38 -111 13 -221 -67 -302 -115 -114 -287 -114 -402 0 -114 115 -114 287
1 402 30 30 68 57 95 67 60 21 145 21 206 0z"/>
<path d="M15934 25930 c-6 -6 -42 -15 -80 -19 -117 -14 -253 -72 -364 -155
-65 -48 -157 -141 -166 -168 -3 -10 -9 -18 -13 -18 -5 0 -25 -35 -45 -77 -21
-43 -43 -87 -49 -98 -30 -56 -47 -309 -27 -405 39 -180 125 -334 258 -462 117
-112 270 -188 378 -188 25 0 47 -6 54 -15 18 -22 208 -22 224 1 8 10 50 22
116 34 58 10 116 22 130 26 79 24 226 139 294 232 39 54 106 175 106 193 0 6
6 25 14 42 8 18 17 53 21 79 3 26 10 50 16 53 16 10 11 219 -6 251 -8 16 -15
45 -15 64 0 19 -7 44 -15 54 -8 11 -15 27 -15 36 0 19 -52 122 -92 185 -46 71
-172 192 -241 231 -113 63 -193 92 -286 104 -41 5 -79 14 -85 20 -13 13 -99
13 -112 0z"/>
<path d="M15750 23029 c1 -613 -2 -945 -9 -952 -7 -7 -24 -6 -53 1 -24 6 -83
18 -133 27 -49 9 -108 20 -130 25 -22 5 -58 12 -80 15 -22 4 -62 11 -90 16
-27 5 -70 13 -95 18 -116 21 -390 84 -485 111 -22 6 -50 14 -63 17 -12 3 -25
9 -28 14 -3 5 -13 9 -23 9 -28 0 -218 92 -257 125 -7 6 -32 26 -56 44 -125 98
-192 243 -169 366 35 187 204 351 461 444 19 7 44 17 55 21 41 17 172 58 220
69 114 27 204 51 230 61 62 24 84 34 127 61 89 57 112 143 63 239 -37 73 -78
115 -148 148 -87 42 -199 58 -314 43 -110 -15 -174 -34 -292 -90 -19 -9 -98
-58 -175 -110 -78 -51 -156 -102 -173 -112 -18 -11 -50 -29 -70 -40 -137 -78
-292 -194 -338 -255 -16 -22 -37 -47 -46 -57 -9 -10 -33 -52 -54 -95 -43 -88
-49 -102 -63 -157 -5 -22 -16 -60 -22 -85 -21 -75 -24 -216 -6 -255 9 -18 16
-43 16 -56 0 -34 20 -95 64 -193 78 -172 245 -345 440 -456 85 -48 106 -58
191 -94 50 -21 98 -42 107 -47 10 -5 27 -9 37 -9 11 0 22 -4 25 -9 3 -5 18
-11 33 -14 16 -3 46 -11 68 -17 122 -35 400 -93 520 -109 36 -4 51 -11 53 -24
2 -10 -4 -20 -15 -24 -10 -4 -20 -9 -23 -13 -3 -3 -34 -29 -70 -57 -156 -124
-283 -300 -339 -472 -82 -253 -19 -524 172 -730 97 -105 256 -225 398 -299 29
-15 54 -32 56 -39 2 -6 -13 -21 -34 -33 -328 -195 -511 -426 -599 -757 -41
-154 -42 -391 -4 -558 12 -49 24 -102 27 -118 3 -15 9 -30 14 -33 5 -3 9 -12
9 -21 0 -9 25 -66 55 -127 128 -258 354 -487 738 -745 42 -29 77 -57 77 -63 0
-6 -33 -45 -73 -87 -134 -141 -203 -265 -236 -429 -29 -141 -4 -367 59 -527
15 -40 90 -191 116 -235 101 -171 363 -490 403 -490 4 0 11 -29 13 -64 8 -89
39 -144 101 -175 119 -59 237 35 237 190 0 36 6 46 55 90 83 76 279 331 354
460 57 96 124 256 149 354 55 213 41 387 -46 575 -45 97 -88 157 -180 252 -44
45 -73 82 -69 90 2 8 43 37 89 66 210 128 468 347 577 487 187 243 270 470
287 789 17 308 -95 603 -315 829 -77 79 -209 187 -230 187 -6 0 -11 3 -11 8 0
4 -10 12 -23 18 -74 37 -88 47 -85 61 2 9 10 20 18 24 8 5 53 30 100 55 109
59 185 116 284 212 79 77 191 231 203 281 3 14 9 31 13 36 12 18 29 88 41 173
13 83 7 144 -22 257 -15 56 -58 152 -91 203 -15 24 -28 45 -28 48 0 3 -24 35
-54 72 -57 72 -149 160 -240 231 -31 25 -55 49 -53 55 2 6 24 14 48 18 24 4
71 12 104 18 120 20 225 42 335 70 19 5 49 12 65 15 17 4 39 10 50 15 11 4 40
14 65 21 77 22 213 80 325 136 149 76 312 208 403 326 262 340 217 833 -104
1126 -54 49 -166 131 -179 131 -3 0 -31 16 -61 35 -30 19 -57 35 -60 35 -3 0
-24 12 -47 28 -23 15 -49 32 -58 37 -9 6 -64 44 -123 85 -203 142 -281 171
-482 178 -77 3 -151 0 -183 -7 -123 -26 -207 -89 -241 -177 -67 -181 34 -288
325 -344 99 -19 263 -65 320 -89 11 -5 36 -14 55 -21 44 -16 164 -74 210 -102
76 -47 170 -150 208 -228 34 -71 36 -80 36 -170 -1 -87 -4 -100 -33 -156 -38
-72 -121 -157 -209 -214 -34 -22 -65 -40 -67 -40 -3 0 -35 -14 -72 -31 -68
-31 -96 -42 -163 -60 -19 -6 -51 -15 -70 -20 -44 -13 -130 -35 -255 -64 -87
-21 -144 -33 -215 -46 -30 -6 -75 -15 -100 -20 -45 -9 -125 -24 -210 -39 -25
-4 -90 -17 -145 -29 -55 -11 -111 -21 -124 -21 l-24 0 4 948 4 947 -238 3
-237 2 0 -941z m-6 -1608 c14 -22 26 -1024 13 -1037 -4 -4 -18 -2 -32 4 -14 7
-35 16 -47 21 -13 4 -68 30 -123 57 -256 124 -385 263 -385 416 0 77 21 135
77 216 73 103 171 178 363 274 123 62 126 63 134 49z m612 -36 c324 -151 509
-370 465 -548 -37 -148 -146 -251 -388 -367 -57 -28 -106 -50 -109 -50 -2 0
-25 -10 -50 -21 -26 -13 -49 -18 -53 -13 -5 5 -6 242 -3 527 4 492 6 517 23
517 10 0 62 -20 115 -45z m-592 -1724 c3 -5 10 -294 16 -642 5 -349 11 -712
14 -807 3 -138 1 -175 -10 -179 -7 -2 -19 0 -26 7 -7 6 -38 29 -68 51 -208
151 -388 332 -459 459 -88 157 -120 267 -121 407 0 145 36 254 123 368 25 33
67 79 94 102 67 56 196 139 263 169 30 14 78 36 105 49 57 27 62 28 69 16z
m554 -61 c371 -180 552 -394 552 -652 0 -87 -12 -166 -31 -200 -5 -10 -9 -22
-9 -28 0 -21 -52 -121 -108 -206 -72 -110 -210 -253 -357 -369 -60 -48 -118
-93 -128 -101 -9 -8 -25 -14 -34 -14 -15 0 -16 38 -10 488 4 268 7 630 7 805
0 296 1 317 18 317 9 0 54 -18 100 -40z m-104 -2523 c54 -94 69 -200 41 -294
-24 -82 -65 -163 -82 -163 -11 0 -14 6 -10 23 4 12 7 119 8 237 1 118 3 218 6
223 8 14 18 7 37 -26z m-400 -149 c4 -95 9 -203 13 -240 7 -89 -13 -92 -52
-10 -52 108 -70 233 -44 299 32 79 57 123 69 123 4 0 10 -78 14 -172z"/>
<path d="M15444 19052 c-31 -39 -38 -92 -19 -144 9 -23 22 -63 30 -88 12 -42
13 -36 14 108 1 83 0 152 -1 151 -2 0 -12 -12 -24 -27z"/>
<path d="M16516 19039 c-2 -8 -7 -72 -9 -142 -5 -139 3 -152 36 -60 21 60 23
95 7 153 -15 52 -27 70 -34 49z"/>
<path d="M21945 27720 l-500 -500 30 -24 c25 -21 37 -23 77 -19 28 3 60 1 78
-7 80 -33 532 -587 768 -940 486 -730 844 -1561 1006 -2339 40 -190 56 -318
38 -307 -12 7 -36 68 -52 135 -15 56 -21 49 -9 -9 13 -56 45 -228 64 -340 8
-47 22 -141 30 -210 8 -69 18 -143 20 -166 l6 -40 122 121 c212 210 441 336
722 396 112 24 334 34 440 21 44 -6 80 -10 81 -9 1 1 -2 22 -7 47 -10 51 -35
174 -54 270 -61 313 -143 625 -252 970 -62 199 -206 585 -273 735 -5 11 -21
47 -35 80 -62 141 -85 190 -178 380 -319 646 -726 1261 -1191 1800 -134 155
-414 455 -424 455 -4 0 -232 -225 -507 -500z"/>
<path d="M9543 27991 c-824 -866 -1425 -1799 -1878 -2911 -169 -416 -323 -921
-430 -1410 -20 -91 -42 -192 -49 -225 l-13 -60 196 -1 c162 0 213 -4 294 -22
196 -43 350 -108 509 -214 95 -64 259 -214 313 -287 17 -22 35 -41 41 -41 7 0
14 33 17 83 10 118 61 392 117 622 313 1293 976 2507 1883 3451 78 81 116 128
111 136 -19 33 -981 988 -994 987 -8 0 -61 -49 -117 -108z"/>
<path d="M24492 23119 c-407 -53 -751 -358 -859 -765 -23 -87 -26 -118 -26
-254 0 -136 3 -167 26 -254 98 -367 378 -646 746 -743 83 -22 117 -26 251 -26
134 0 168 4 251 26 299 79 541 277 674 550 268 554 -10 1220 -592 1418 -151
51 -316 68 -471 48z m-310 -396 c17 -15 18 -43 18 -472 0 -435 1 -458 20 -488
38 -64 32 -63 531 -63 407 0 454 -2 471 -17 21 -18 24 -53 6 -71 -9 -9 -129
-12 -480 -12 -456 0 -469 1 -513 21 -51 24 -89 65 -116 124 -17 37 -19 77 -19
506 0 348 3 468 12 477 17 17 48 15 70 -5z m1046 5 c33 -33 15 -61 -135 -210
-82 -80 -158 -151 -170 -157 -26 -13 -83 -14 -115 -2 -13 5 -56 41 -97 80 -40
39 -80 71 -89 71 -8 0 -61 -45 -117 -100 -99 -98 -127 -114 -153 -88 -31 31
-14 62 91 165 155 152 198 157 331 32 61 -57 81 -70 99 -65 12 3 85 68 162
146 138 138 165 156 193 128z m-94 -384 c14 -13 16 -52 16 -269 0 -274 -2
-285 -54 -285 -44 0 -46 10 -46 285 0 190 3 264 12 273 17 17 54 15 72 -4z
m-466 -289 c2 -167 -1 -242 -9 -251 -16 -19 -48 -18 -71 3 -16 15 -18 36 -18
244 l0 228 27 20 c23 19 29 20 47 7 20 -13 21 -23 24 -251z m-248 145 c18 -18
20 -33 20 -193 0 -187 -7 -217 -54 -217 -43 0 -46 13 -46 217 0 172 2 193 18
202 25 15 40 13 62 -9z m480 -49 c15 -29 13 -334 -2 -349 -19 -19 -66 -15 -78
7 -5 11 -10 86 -10 172 0 128 3 155 17 171 21 24 60 23 73 -1z"/>
<path d="M7236 22990 c-228 -36 -422 -134 -582 -294 -135 -135 -221 -286 -271
-474 -23 -85 -26 -117 -26 -252 0 -135 3 -167 26 -252 107 -402 422 -693 826
-762 224 -38 443 -3 651 105 254 132 440 368 517 657 23 84 26 117 26 252 0
135 -3 168 -26 252 -50 188 -136 339 -271 474 -190 190 -422 290 -691 299 -66
2 -147 0 -179 -5z m347 -465 c-1 -11 -43 -195 -92 -410 -86 -371 -92 -391
-121 -417 -70 -64 -180 -15 -180 81 0 46 359 773 379 768 9 -1 15 -11 14 -22z
m-127 -87 c3 -3 -12 -40 -33 -82 -30 -61 -42 -76 -60 -76 -21 0 -23 4 -23 54
0 29 3 68 6 86 7 32 7 32 56 28 27 -3 51 -7 54 -10z m-166 -42 c0 -24 3 -57 6
-74 l6 -30 -59 -7 c-51 -6 -147 -33 -205 -59 -12 -6 -24 4 -48 39 -38 56 -36
59 63 109 78 40 153 64 205 65 31 1 32 0 32 -43z m377 -28 l32 -19 -46 -72
c-62 -97 -64 -99 -88 -81 -19 14 -19 16 -1 102 10 48 20 91 23 95 6 10 40 0
80 -25z m169 -130 c74 -77 149 -190 141 -212 -3 -7 -29 -22 -59 -33 -29 -12
-77 -30 -105 -42 l-53 -21 -28 63 c-16 34 -47 85 -69 113 l-40 50 61 76 c33
42 66 77 72 77 6 1 42 -32 80 -71z m-887 -3 c17 -20 31 -37 31 -39 0 -2 -28
-33 -63 -68 -35 -34 -76 -86 -92 -114 -27 -49 -30 -51 -57 -42 -15 6 -30 14
-33 18 -17 28 140 280 175 280 4 0 22 -16 39 -35z m1083 -351 c9 -38 17 -104
17 -146 l1 -78 -146 0 -145 0 7 23 c4 12 7 65 8 117 l1 94 110 32 c61 18 115
31 120 30 6 -1 18 -34 27 -72z m-1256 33 c1 -1 -4 -26 -12 -56 -7 -29 -15 -85
-17 -125 -3 -54 -8 -72 -19 -74 -9 -2 -18 7 -22 20 -8 30 -8 177 0 218 6 29 9
31 37 26 17 -3 32 -7 33 -9z"/>
<path d="M7266 21814 c-22 -21 -20 -47 4 -69 44 -40 107 25 69 71 -15 19 -54
18 -73 -2z"/>
<path d="M23486 21197 c-3 -17 -13 -81 -21 -142 -50 -363 -168 -854 -300
-1251 -354 -1059 -928 -2017 -1694 -2828 -67 -71 -120 -134 -118 -140 2 -7 42
-13 100 -16 l97 -5 82 -80 c238 -230 472 -463 570 -569 l111 -118 -6 -83 c-5
-77 -4 -84 17 -104 l22 -21 130 132 c513 525 1007 1198 1393 1898 49 88 254
498 293 585 76 168 91 204 108 245 9 25 39 97 65 160 99 241 220 599 305 900
77 272 217 900 204 913 -2 2 -39 -1 -81 -6 -43 -5 -130 -6 -194 -3 -399 18
-774 203 -1030 508 l-48 58 -5 -33z"/>
<path d="M8400 20988 c-194 -206 -451 -348 -743 -409 -80 -17 -138 -22 -272
-23 -93 0 -191 3 -216 7 l-47 8 9 -48 c19 -99 42 -221 60 -318 10 -55 23 -127
29 -160 6 -33 15 -67 19 -75 5 -9 12 -39 16 -68 11 -81 20 -69 17 21 -1 55 1
77 7 67 5 -9 39 -117 76 -240 188 -638 365 -1104 606 -1600 373 -766 807
-1413 1376 -2049 l156 -175 -6 -67 c-5 -63 -4 -68 23 -100 l29 -34 502 502
502 501 -124 134 c-707 759 -1201 1569 -1551 2543 -180 501 -330 1157 -363
1588 -4 48 -10 87 -13 86 -4 -1 -45 -42 -92 -91z"/>
<path d="M21019 16537 c-511 -455 -1088 -846 -1709 -1156 -107 -53 -224 -110
-260 -125 -36 -16 -87 -39 -115 -52 -77 -35 -192 -83 -280 -116 -44 -17 -102
-39 -130 -50 -447 -173 -1298 -388 -1536 -388 -21 0 -39 -3 -39 -6 0 -4 37
-46 83 -93 183 -190 310 -437 364 -708 22 -110 24 -393 4 -501 -7 -40 -11 -75
-9 -78 8 -7 396 75 648 136 328 81 804 232 1118 356 942 371 1806 881 2568
1514 160 133 404 353 404 364 0 13 -984 996 -997 996 -6 0 -57 -42 -114 -93z"/>
<path d="M10252 16027 c-270 -271 -492 -497 -492 -504 0 -6 12 -18 26 -27 19
-13 37 -16 78 -11 69 9 83 1 221 -121 534 -470 1271 -964 1930 -1294 61 -30
113 -59 117 -65 5 -7 8 -7 8 0 0 6 3 6 8 0 4 -6 20 -19 37 -29 46 -30 18 -29
-88 3 -53 16 -97 25 -97 20 0 -5 5 -9 12 -9 6 0 30 -9 52 -19 132 -62 198 -91
251 -112 33 -13 62 -27 65 -31 3 -3 19 -10 35 -14 17 -4 35 -10 40 -13 6 -4
44 -20 85 -36 41 -16 79 -32 85 -37 5 -4 15 -8 23 -8 8 0 28 -7 45 -15 39 -17
67 -27 327 -114 206 -70 227 -76 355 -112 372 -105 668 -170 1135 -248 63 -11
116 -19 117 -18 1 1 -5 28 -12 60 -7 32 -19 109 -25 170 -41 385 94 798 355
1084 l65 71 -27 6 c-16 3 -88 12 -162 21 -851 100 -1841 426 -2631 865 -469
260 -860 536 -1282 902 -81 70 -151 128 -155 128 -5 0 -230 -222 -501 -493z"/>
<path d="M15862 14600 c-413 -58 -751 -359 -859 -766 -23 -87 -26 -118 -26
-254 0 -135 3 -168 26 -251 98 -370 376 -648 743 -746 87 -22 119 -26 254 -26
134 0 168 4 251 26 299 79 541 277 674 550 139 288 137 611 -5 902 -137 280
-404 487 -705 550 -96 20 -267 27 -353 15z m488 -483 c85 -43 135 -154 111
-244 -43 -159 -236 -216 -355 -105 -84 79 -88 221 -8 306 62 66 169 85 252 43z
m-492 -183 c112 -47 166 -187 113 -293 -100 -195 -391 -136 -409 83 -5 66 35
148 93 188 60 41 138 49 203 22z m539 -329 c59 -18 117 -70 144 -130 15 -32
19 -66 19 -162 l0 -123 -164 0 -165 0 -11 58 c-23 107 -79 184 -167 228 -32
16 -60 30 -62 31 -2 1 9 17 24 35 15 17 31 42 36 55 8 23 11 23 152 23 99 0
159 -5 194 -15z m-426 -190 c62 -21 112 -65 139 -122 20 -41 23 -65 24 -168
l1 -120 -357 -3 -358 -2 0 111 c0 62 5 130 12 153 15 51 99 137 148 153 56 18
338 16 391 -2z"/>
<path d="M1820 7950 l0 -3180 500 0 500 0 0 1365 0 1365 193 0 c315 0 443 -24
558 -103 37 -25 77 -64 99 -96 42 -60 84 -174 99 -266 6 -33 13 -73 17 -90 3
-16 9 -446 14 -955 8 -994 5 -942 61 -1142 l22 -78 508 0 c280 0 509 2 509 5
0 2 -9 27 -20 54 -32 81 -58 199 -69 310 -7 61 -11 386 -11 805 0 920 -11
1119 -75 1377 -86 346 -246 551 -510 655 -38 15 -74 30 -78 34 -5 4 31 29 80
54 314 168 482 440 550 896 25 167 25 859 0 1037 -49 350 -156 593 -341 779
-147 146 -326 241 -568 299 -214 51 -294 55 -1200 55 l-838 0 0 -3180z m1625
2255 c172 -45 272 -161 317 -369 17 -77 21 -143 25 -419 6 -359 -4 -534 -39
-645 -45 -150 -119 -242 -241 -302 -103 -50 -173 -60 -444 -60 l-243 0 0 905
0 905 283 0 c222 0 295 -3 342 -15z"/>
<path d="M5741 7976 c-282 -1735 -516 -3166 -518 -3180 l-5 -26 466 0 c368 0
466 3 466 13 0 16 168 1173 176 1210 l6 27 564 0 c443 0 566 -3 569 -12 3 -7
45 -287 93 -623 l88 -610 501 -3 c474 -2 501 -1 497 15 -2 10 -234 1429 -514
3153 -281 1724 -513 3147 -516 3163 l-6 27 -676 0 -677 0 -514 -3154z m1160
2042 c0 -2 100 -707 222 -1568 l223 -1565 -445 -3 c-244 -1 -446 0 -449 2 -2
3 93 706 212 1563 119 857 216 1561 216 1566 0 6 19 11 21 5z"/>
<path d="M9052 10678 l3 -453 878 -3 c482 -1 877 -5 877 -9 0 -3 -416 -1030
-925 -2282 l-925 -2276 0 -443 0 -442 1465 0 1465 0 0 455 0 455 -925 0 c-509
0 -925 2 -925 5 0 3 416 1029 925 2281 l925 2277 0 443 0 444 -1420 0 -1420 0
2 -452z"/>
<path d="M12450 7950 l0 -3180 1365 0 1365 0 0 455 0 455 -865 0 -865 0 0 975
0 975 688 2 687 3 3 453 2 452 -690 0 -690 0 0 840 0 840 865 0 865 0 0 455 0
455 -1365 0 -1365 0 0 -3180z"/>
<path d="M15750 7950 l0 -3180 1325 0 1325 0 0 455 0 455 -825 0 -825 0 0
2725 0 2725 -500 0 -500 0 0 -3180z"/>
<path d="M18957 10978 c-4 -83 -7 -1514 -7 -3180 l0 -3028 435 0 435 0 0 2410
c0 1941 2 2410 13 2410 9 0 55 -282 165 -1017 216 -1437 561 -3721 568 -3766
l6 -37 419 0 c305 0 419 3 419 11 0 14 316 2123 550 3677 94 618 170 1125 170
1128 0 2 7 4 16 4 15 0 16 -194 9 -2410 l-8 -2410 478 0 478 0 -5 1191 -5
1191 -34 28 c-75 62 -96 86 -102 116 -3 17 -2 35 2 40 5 5 11 38 14 74 4 36
11 81 17 100 5 19 10 47 10 62 0 16 3 28 8 28 4 0 7 10 8 23 1 35 12 126 25
197 6 36 12 72 13 80 1 9 5 21 10 28 4 6 5 12 3 12 -2 0 2 25 9 57 9 40 13
147 14 367 l0 311 -42 45 c-94 101 -155 168 -182 203 -26 33 -41 54 -96 137
-14 21 -77 150 -110 225 -10 22 -41 118 -58 180 -6 22 -17 63 -26 90 -22 77
-63 286 -80 420 -9 66 -21 149 -27 185 -5 36 -14 101 -19 145 -21 183 -52 357
-91 507 -11 43 -59 101 -66 80 -4 -10 -9 -9 -24 4 -18 16 -19 16 -20 -2 0 -11
-3 -14 -6 -6 -4 10 -8 10 -19 1 -11 -9 -14 -9 -14 0 0 7 -5 9 -11 5 -6 -3 -15
0 -20 7 -7 11 -9 11 -9 -2 0 -10 -7 -16 -17 -15 -13 1 -19 -7 -21 -26 -2 -16
-8 -28 -13 -28 -5 0 -9 -9 -9 -20 0 -11 -6 -20 -13 -20 -8 0 -24 -21 -37 -47
-29 -60 -29 -60 -41 -43 -8 11 -9 8 -6 -13 3 -21 1 -27 -9 -23 -9 3 -14 -2
-14 -14 0 -13 -5 -18 -15 -14 -10 4 -15 0 -16 -12 0 -11 -3 -14 -6 -6 -3 8
-30 12 -83 12 -53 0 -80 -4 -84 -12 -5 -10 -7 -10 -12 0 -4 7 -27 12 -63 12
-39 0 -58 -4 -59 -12 -1 -7 -4 -27 -6 -44 -2 -17 -9 -41 -15 -53 -7 -12 -9
-26 -6 -31 3 -6 3 -10 -2 -10 -4 0 -9 -35 -11 -78 -1 -42 -5 -106 -8 -142 -3
-36 -6 -113 -7 -172 -1 -60 -4 -108 -7 -108 -3 0 -6 -33 -7 -72 -1 -72 -13
-199 -34 -373 -6 -49 -12 -106 -14 -125 -1 -19 -5 -42 -8 -50 -3 -8 -8 -35
-10 -60 -7 -67 -55 -282 -66 -293 -5 -5 -12 -1 -15 11 -8 23 -45 36 -51 19 -3
-9 -270 -1895 -342 -2414 -15 -109 -30 -32 -117 585 -48 345 -150 1066 -225
1603 l-138 977 -32 33 c-57 62 -140 254 -221 514 -17 55 -35 109 -40 120 -5
11 -34 97 -66 190 -60 179 -94 272 -125 342 -10 24 -19 48 -19 53 0 6 -9 29
-20 50 l-20 40 -529 0 -528 0 -6 -152z"/>
<path d="M27147 10618 c-4 -281 -7 -1712 -7 -3180 l0 -2668 813 0 c466 0 859
4 922 10 621 57 1008 340 1179 863 53 159 52 153 9 182 -154 104 -298 195
-309 195 -8 0 -14 4 -14 10 0 5 -15 16 -34 25 -42 20 -67 43 -104 98 -45 64
-154 264 -179 327 -60 150 -123 394 -155 600 -14 91 -17 276 -6 350 22 149 52
299 78 395 17 61 44 160 61 220 60 220 63 478 8 635 -56 158 -186 545 -210
625 l-24 80 -6 -125 c-4 -69 -7 -794 -8 -1611 -1 -1570 0 -1553 -46 -1679 -52
-146 -168 -246 -323 -279 -33 -7 -168 -11 -352 -11 l-300 0 0 2223 c0 2472 6
2252 -73 2424 -45 98 -132 305 -147 353 -18 55 -143 363 -172 422 l-13 28
-291 0 -291 0 -6 -512z"/>
<path d="M25590 10669 c-6 -11 -33 -70 -59 -132 -27 -61 -58 -132 -69 -157
-28 -62 -62 -142 -62 -146 0 -2 186 -4 412 -4 l413 0 -50 26 c-28 15 -53 31
-56 36 -3 5 -9 9 -13 9 -11 -2 -66 29 -66 37 0 4 -15 15 -32 25 -18 10 -47 30
-64 45 -18 15 -54 45 -80 67 -27 22 -88 78 -136 125 -89 88 -120 103 -138 69z"/>
<path d="M21680 10650 c0 -5 5 -10 10 -10 6 0 10 5 10 10 0 6 -4 10 -10 10 -5
0 -10 -4 -10 -10z"/>
<path d="M26525 10348 c-21 -18 -51 -45 -67 -60 -16 -15 -31 -27 -34 -27 -2 0
-12 -7 -20 -16 -14 -13 -6 -15 75 -15 l91 0 0 75 c0 41 -2 75 -3 75 -2 0 -21
-15 -42 -32z"/>
<path d="M23852 8820 c-1 -520 -5 -1644 -9 -2497 l-6 -1553 1366 0 1367 0 0
455 0 455 -865 0 -865 0 0 308 0 307 -96 49 -95 48 -53 112 c-55 115 -175 404
-265 635 l-52 133 11 77 c7 42 23 123 37 181 20 89 22 111 13 145 -7 27 -10
127 -8 295 l3 255 -48 157 c-45 145 -48 162 -39 205 10 45 9 51 -25 106 -86
142 -207 381 -243 482 -49 135 -104 385 -123 555 -2 19 -5 -390 -5 -910z"/>
<path d="M25280 8514 c-6 -14 -10 -30 -10 -37 0 -11 -23 -82 -41 -122 -4 -11
-20 -55 -34 -97 l-26 -77 32 -188 c18 -103 35 -206 39 -228 4 -28 1 -53 -12
-82 l-17 -43 499 0 500 0 0 450 0 450 -460 0 -460 0 -10 -26z"/>
<path d="M12520 3754 c-200 -43 -362 -197 -401 -382 -6 -32 -9 -98 -7 -153 4
-82 10 -107 37 -165 63 -134 146 -209 420 -374 280 -169 366 -267 366 -410 -1
-104 -56 -184 -160 -232 -41 -19 -67 -23 -145 -23 -171 0 -299 60 -442 207
l-78 79 0 -174 0 -175 63 -40 c92 -61 191 -102 292 -123 332 -69 609 59 707
327 32 88 32 263 0 356 -30 87 -85 170 -158 239 -69 65 -122 101 -338 229
-226 135 -296 209 -312 328 -6 44 -3 60 20 106 56 115 203 167 385 136 91 -15
225 -81 299 -145 l52 -47 0 156 0 156 -46 29 c-149 95 -375 134 -554 95z"/>
<path d="M16145 3759 c-217 -31 -406 -123 -565 -276 -145 -138 -242 -311 -282
-503 -24 -111 -28 -321 -9 -415 101 -492 497 -795 1041 -795 193 0 436 47 628
120 l82 32 0 414 0 414 -325 0 -325 0 0 -125 0 -125 185 0 185 0 0 -204 0
-203 -72 -21 c-167 -49 -210 -56 -358 -55 -171 0 -253 18 -383 84 -119 62
-249 193 -305 310 -59 122 -76 199 -76 354 0 104 5 146 23 210 71 253 277 455
531 522 82 22 305 24 405 4 112 -22 273 -77 378 -129 l97 -49 0 139 0 138 -57
26 c-115 51 -319 113 -424 128 -114 17 -276 19 -374 5z"/>
<path d="M23260 3754 c-200 -43 -362 -197 -401 -382 -6 -32 -9 -98 -7 -153 4
-82 10 -107 37 -165 63 -134 146 -209 420 -374 280 -169 366 -267 366 -410 -1
-104 -56 -184 -160 -232 -41 -19 -67 -23 -145 -23 -171 0 -299 60 -442 207
l-78 79 0 -174 0 -175 63 -40 c92 -61 191 -102 292 -123 332 -69 609 59 707
327 32 88 32 263 0 356 -30 87 -85 170 -158 239 -69 65 -122 101 -338 229
-226 135 -296 209 -312 328 -6 44 -3 60 20 106 56 115 203 167 385 136 91 -15
225 -81 299 -145 l52 -47 0 156 0 156 -46 29 c-149 95 -375 134 -554 95z"/>
<path d="M8140 2770 l0 -970 135 0 135 0 0 970 0 970 -135 0 -135 0 0 -970z"/>
<path d="M9420 2770 l0 -970 130 0 130 0 2 745 3 746 645 -745 645 -745 123
-1 122 0 0 970 0 970 -135 0 -135 0 -2 -749 -3 -749 -649 749 -649 749 -113 0
-114 0 0 -970z"/>
<path d="M14080 2770 l0 -970 135 0 135 0 0 970 0 970 -135 0 -135 0 0 -970z"/>
<path d="M18020 2770 l0 -970 140 0 140 0 0 420 0 420 545 0 545 0 0 -420 0
-420 140 0 140 0 0 970 0 970 -140 0 -140 0 0 -420 0 -420 -545 0 -545 0 0
420 0 420 -140 0 -140 0 0 -970z"/>
<path d="M20490 3615 l0 -125 330 0 330 0 0 -845 0 -845 140 0 140 0 0 845 0
845 340 0 340 0 0 125 0 125 -810 0 -810 0 0 -125z"/>
<path d="M1830 2820 l0 -130 2750 0 2750 0 0 130 0 130 -2750 0 -2750 0 0
-130z"/>
<path d="M24630 2820 l0 -130 2740 0 2740 0 0 130 0 130 -2740 0 -2740 0 0
-130z"/>
<path d="M9914 1061 c-47 -12 -88 -39 -112 -75 -45 -66 -47 -198 -6 -278 9
-18 65 -83 125 -144 85 -88 110 -121 119 -155 24 -87 -5 -149 -70 -149 -51 0
-72 26 -78 95 l-4 55 -66 0 -65 0 6 -69 c7 -79 33 -140 75 -170 60 -42 177
-50 243 -16 42 22 87 81 94 122 4 21 8 49 11 63 6 33 -11 122 -33 168 -9 20
-61 81 -116 135 -109 108 -143 165 -134 225 8 47 33 72 74 72 48 0 73 -29 73
-85 l0 -45 65 0 65 0 0 50 c0 82 -39 153 -102 186 -33 17 -123 26 -164 15z"/>
<path d="M10654 1061 c-47 -12 -88 -39 -112 -75 -45 -66 -47 -198 -6 -278 9
-18 65 -83 125 -144 85 -88 110 -121 119 -155 24 -87 -5 -149 -70 -149 -51 0
-72 26 -78 95 l-4 55 -66 0 -65 0 6 -69 c7 -79 33 -140 75 -170 60 -42 177
-50 243 -16 42 22 87 81 94 122 4 21 8 49 11 63 6 33 -11 122 -33 168 -9 20
-61 81 -116 135 -109 108 -143 165 -134 225 8 47 33 72 74 72 48 0 73 -29 73
-85 l0 -45 65 0 65 0 0 50 c0 82 -39 153 -102 186 -33 17 -123 26 -164 15z"/>
<path d="M13484 1061 c-47 -12 -88 -39 -112 -75 -45 -66 -47 -198 -6 -278 9
-18 65 -83 125 -144 85 -88 110 -121 119 -155 24 -87 -5 -149 -70 -149 -51 0
-72 26 -78 95 l-4 55 -66 0 -65 0 6 -69 c7 -79 33 -140 75 -170 60 -42 177
-50 243 -16 42 22 87 81 94 122 4 21 8 49 11 63 6 33 -11 122 -33 168 -9 20
-61 81 -116 135 -109 108 -143 165 -134 225 8 47 33 72 74 72 48 0 73 -29 73
-85 l0 -45 65 0 65 0 0 50 c0 82 -39 153 -102 186 -33 17 -123 26 -164 15z"/>
<path d="M14234 1061 c-47 -12 -88 -39 -112 -75 -45 -66 -47 -198 -6 -278 9
-18 65 -83 125 -144 85 -88 110 -121 119 -155 24 -87 -5 -149 -70 -149 -51 0
-72 26 -78 95 l-4 55 -66 0 -65 0 6 -69 c7 -79 33 -140 75 -170 60 -42 177
-50 243 -16 42 22 87 81 94 122 4 21 8 49 11 63 6 33 -11 122 -33 168 -9 20
-61 81 -116 135 -109 108 -143 165 -134 225 8 47 33 72 74 72 48 0 73 -29 73
-85 l0 -45 65 0 65 0 0 50 c0 82 -39 153 -102 186 -33 17 -123 26 -164 15z"/>
<path d="M20245 1065 c-5 -2 -22 -6 -37 -9 -39 -9 -88 -54 -109 -101 -17 -36
-19 -71 -19 -353 0 -335 3 -357 53 -410 73 -78 229 -80 306 -3 52 52 61 97 61
300 l0 171 -100 0 -100 0 0 -65 0 -65 35 0 35 0 0 -109 c0 -94 -3 -112 -21
-135 -22 -28 -64 -35 -99 -16 -33 18 -40 76 -40 330 0 139 5 261 10 282 12 42
34 58 79 58 46 0 71 -39 71 -111 l0 -59 65 0 65 0 0 56 c0 132 -51 212 -148
233 -52 11 -87 13 -107 6z"/>
<path d="M22575 1066 c-5 -2 -22 -7 -37 -10 -39 -9 -88 -54 -109 -101 -17 -36
-19 -71 -19 -353 0 -335 3 -357 53 -410 39 -42 77 -56 152 -56 93 0 149 29
184 97 19 38 25 67 29 147 l5 100 -65 0 -66 0 -4 -90 c-3 -68 -8 -94 -23 -110
-24 -26 -78 -27 -105 0 -19 19 -20 33 -20 320 0 287 1 301 20 320 26 26 81 26
105 0 13 -14 19 -42 23 -95 l5 -75 65 0 65 0 -6 86 c-9 149 -64 217 -188 228
-30 3 -58 4 -64 2z"/>
<path d="M8200 600 l0 -460 120 0 c160 0 212 12 260 60 47 47 65 119 57 232
-6 90 -29 144 -73 174 l-32 21 32 25 c41 33 56 83 56 184 -1 179 -63 224 -305
224 l-115 0 0 -460z m260 310 c17 -17 20 -33 20 -104 0 -80 -1 -86 -27 -106
-20 -16 -38 -20 -72 -18 l-46 3 -3 109 c-1 61 0 116 2 123 9 22 102 17 126 -7z
m9 -379 c25 -25 34 -75 29 -156 -6 -90 -23 -107 -102 -103 l-61 3 -3 138 -3
137 61 0 c46 0 64 -4 79 -19z"/>
<path d="M8992 668 c3 -384 3 -394 25 -435 28 -52 66 -79 129 -93 85 -20 163
1 216 57 51 54 52 61 56 476 l3 387 -70 0 -71 0 0 -380 c0 -367 -1 -381 -20
-400 -30 -30 -83 -27 -109 6 -20 26 -21 37 -21 400 l0 374 -71 0 -70 0 3 -392z"/>
<path d="M11280 600 l0 -460 65 0 65 0 0 460 0 460 -65 0 -65 0 0 -460z"/>
<path d="M11800 600 l0 -460 60 0 60 0 0 337 c0 185 2 334 4 332 3 -2 39 -137
81 -299 42 -162 81 -312 86 -332 l10 -38 69 0 70 0 0 460 0 460 -60 0 -60 0 0
-277 c0 -152 -2 -274 -5 -271 -3 3 -36 126 -74 274 l-68 269 -86 3 -87 3 0
-461z"/>
<path d="M12620 600 l0 -460 190 0 190 0 0 65 0 64 -122 3 -123 3 -3 138 -3
137 101 0 100 0 0 65 0 64 -97 3 -98 3 0 120 0 120 123 3 122 3 0 64 0 65
-190 0 -190 0 0 -460z"/>
<path d="M15330 600 l0 -460 65 0 65 0 0 460 0 460 -65 0 -65 0 0 -460z"/>
<path d="M15850 600 l0 -460 60 0 60 0 0 337 c0 185 2 334 4 332 3 -2 39 -137
81 -299 42 -162 81 -312 86 -332 l10 -38 69 0 70 0 0 460 0 460 -60 0 -60 0 0
-277 c0 -152 -2 -274 -5 -271 -3 3 -36 126 -74 274 l-68 269 -86 3 -87 3 0
-461z"/>
<path d="M16630 995 l0 -65 75 0 75 0 0 -395 0 -395 70 0 70 0 0 395 0 395 75
0 75 0 0 65 0 65 -220 0 -220 0 0 -65z"/>
<path d="M17410 600 l0 -460 190 0 190 0 0 65 0 64 -122 3 -123 3 -3 138 -3
137 101 0 100 0 0 65 0 64 -97 3 -98 3 0 120 0 120 123 3 122 3 0 64 0 65
-190 0 -190 0 0 -460z"/>
<path d="M18150 600 l0 -460 185 0 185 0 0 65 0 64 -117 3 -118 3 -3 393 -2
392 -65 0 -65 0 0 -460z"/>
<path d="M18860 600 l0 -460 185 0 185 0 0 65 0 64 -117 3 -118 3 -3 393 -2
392 -65 0 -65 0 0 -460z"/>
<path d="M19570 600 l0 -460 65 0 65 0 0 460 0 460 -65 0 -65 0 0 -460z"/>
<path d="M20860 600 l0 -460 190 0 190 0 0 65 0 64 -122 3 -123 3 -3 138 -3
137 101 0 100 0 0 65 0 64 -97 3 -98 3 0 120 0 120 123 3 122 3 0 64 0 65
-190 0 -190 0 0 -460z"/>
<path d="M21600 600 l0 -460 60 0 60 0 0 337 c0 185 2 334 4 332 3 -2 39 -137
81 -299 42 -162 81 -312 86 -332 l10 -38 69 0 70 0 0 460 0 460 -60 0 -60 0 0
-277 c0 -152 -2 -274 -5 -271 -3 3 -36 126 -74 274 l-68 269 -86 3 -87 3 0
-461z"/>
<path d="M23190 600 l0 -460 190 0 190 0 0 65 0 64 -122 3 -123 3 -3 138 -3
137 101 0 100 0 0 65 0 64 -97 3 -98 3 0 120 0 120 123 3 122 3 0 64 0 65
-190 0 -190 0 0 -460z"/>
</g>
</svg>
