<?xml version="1.0" standalone="no"?>
<!DOCTYPE svg PUBLIC "-//W3C//DTD SVG 20010904//EN"
 "http://www.w3.org/TR/2001/REC-SVG-20010904/DTD/svg10.dtd">
<svg version="1.0" xmlns="http://www.w3.org/2000/svg"
 width="256.000000pt" height="256.000000pt" viewBox="0 0 256.000000 256.000000"
 preserveAspectRatio="xMidYMid meet">

<g transform="translate(0.000000,256.000000) scale(0.100000,-0.100000)"
fill="#000000" stroke="none">
<path d="M1212 2460 c-34 -21 -62 -72 -62 -112 0 -60 69 -128 130 -128 39 0
92 33 112 71 62 116 -67 238 -180 169z m135 -45 c31 -31 35 -40 30 -72 -19
-117 -175 -117 -194 0 -5 32 -1 41 30 72 25 25 44 35 67 35 23 0 42 -10 67
-35z"/>
<path d="M1230 2394 c-28 -33 -9 -104 27 -104 11 0 13 4 6 13 -14 16 -14 78
-1 94 8 10 6 13 -5 13 -8 0 -20 -7 -27 -16z"/>
<path d="M1299 2396 c7 -9 11 -22 8 -31 -4 -8 -2 -17 4 -21 6 -4 4 -15 -6 -31
-16 -23 -16 -25 2 -21 10 2 24 16 31 31 11 22 11 32 0 54 -7 15 -22 29 -33 32
-17 3 -18 1 -6 -13z"/>
<path d="M1458 2335 c-3 -36 -12 -66 -26 -85 l-22 -30 22 -4 c103 -20 183 -43
249 -71 80 -34 201 -108 233 -144 11 -12 24 -21 30 -21 12 0 126 111 126 122
0 4 -36 34 -81 68 -130 97 -330 185 -490 214 l-36 6 -5 -55z"/>
<path d="M992 2359 c-149 -40 -347 -143 -455 -239 l-38 -33 62 -63 62 -62 71
54 c93 73 249 148 361 176 50 12 92 23 93 25 2 1 -6 15 -19 32 -13 18 -24 50
-27 80 -5 59 -4 59 -110 30z"/>
<path d="M1129 2154 c-510 -92 -835 -593 -708 -1092 44 -176 162 -359 305
-472 383 -304 943 -242 1245 138 277 348 256 840 -49 1164 -199 211 -510 314
-793 262z m535 -253 c9 -52 17 -96 20 -98 2 -2 7 12 10 32 7 35 8 35 54 33 42
-1 43 -2 10 -5 -35 -4 -36 -6 -54 -69 -9 -36 -22 -63 -28 -61 -6 2 -16 45 -22
96 -7 51 -14 94 -17 97 -3 3 -8 -8 -12 -25 -9 -42 -28 -55 -72 -46 -30 5 -34
9 -21 16 9 5 27 8 39 7 18 -3 25 5 37 37 24 69 33 88 37 83 2 -2 11 -46 19
-97z m-741 31 c11 -9 23 -27 28 -39 7 -18 16 -23 44 -23 19 0 35 -4 35 -10 0
-5 -18 -10 -40 -10 -28 0 -40 -4 -40 -14 0 -8 -14 -26 -32 -41 -26 -22 -39
-26 -67 -21 -89 14 -111 127 -33 171 32 18 77 12 105 -13z m534 10 c8 -5 13
-44 15 -112 l3 -105 105 -3 c68 -2 107 -7 112 -15 13 -21 10 -341 -4 -355 -7
-7 -26 -12 -43 -12 -23 -1 -35 -8 -50 -32 -17 -27 -74 -66 -117 -80 -9 -3 -9
-15 1 -49 14 -50 5 -88 -31 -126 -20 -21 -20 -24 -5 -41 30 -33 49 -94 43
-135 -9 -54 -41 -112 -75 -138 -27 -20 -28 -22 -15 -59 19 -55 7 -101 -45
-177 -62 -89 -77 -91 -131 -18 -69 94 -84 148 -56 204 14 26 13 28 -19 54 -83
66 -99 194 -33 264 l21 22 -27 31 c-34 41 -41 73 -27 122 7 22 11 41 9 42 -2
1 -22 10 -46 21 -24 10 -57 35 -74 54 -19 22 -44 38 -62 41 l-31 5 -3 187 -2
187 107 3 108 3 3 105 c2 68 7 107 15 112 7 4 86 8 177 8 91 0 170 -4 177 -8z
m-829 -358 c2 -11 -3 -26 -11 -33 -29 -24 -70 17 -46 46 17 20 53 12 57 -13z
m1346 3 c9 -15 7 -21 -9 -33 -10 -8 -24 -13 -29 -11 -17 6 -29 34 -23 51 9 22
46 17 61 -7z m-1354 -432 l0 -365 -25 0 -25 0 0 365 0 365 25 0 25 0 0 -365z
m1350 0 l0 -365 -25 0 -25 0 0 365 0 365 25 0 25 0 0 -365z m-1424 210 c4 -8
3 -23 -1 -32 -3 -10 -6 -107 -5 -215 l1 -198 -26 0 -25 0 0 195 c0 132 3 195
11 195 6 0 3 7 -5 16 -19 19 -20 26 -4 42 17 17 47 15 54 -3z m160 0 c4 -8 3
-23 0 -32 -4 -10 -7 -158 -6 -330 l1 -313 -26 0 -26 0 1 313 c1 172 -2 320 -6
330 -10 27 3 47 31 47 14 0 28 -7 31 -15z m1190 0 c4 -8 3 -23 0 -32 -4 -10
-7 -158 -6 -330 l1 -313 -26 0 -26 0 1 313 c1 172 -2 320 -6 330 -10 27 3 47
31 47 14 0 28 -7 31 -15z m160 -7 c4 -15 1 -25 -12 -35 -10 -7 -12 -13 -6 -13
9 0 12 -51 12 -195 l0 -195 -25 0 -26 0 1 198 c1 108 -2 205 -5 215 -11 27 2
47 29 47 17 0 27 -7 32 -22z m-1191 -149 c14 -42 -45 -66 -61 -24 -10 25 4 45
30 45 16 0 27 -7 31 -21z m870 -8 c0 -34 -30 -51 -51 -29 -25 24 -10 60 24 56
21 -2 27 -8 27 -27z m-955 -296 l0 -295 -25 0 -25 0 0 295 0 295 25 0 25 0 0
-295z m1030 0 l0 -295 -25 0 -25 0 0 295 0 295 25 0 25 0 0 -295z m-952 -72
l2 -283 -23 0 c-21 0 -25 6 -31 46 -8 60 -8 487 0 509 4 9 15 15 28 13 21 -3
21 -6 24 -285z m876 271 c8 -21 8 -468 0 -516 -6 -32 -11 -38 -30 -38 l-24 0
0 278 c0 153 3 282 7 285 12 13 41 7 47 -9z m-793 -180 c17 -21 0 -49 -32 -49
-18 0 -25 6 -27 24 -6 38 34 55 59 25z m707 7 c8 -4 12 -19 10 -32 -4 -29 -45
-34 -61 -7 -19 30 19 60 51 39z m-708 -272 l0 -170 -27 3 -28 3 -3 155 c-1 85
0 160 2 167 3 7 17 13 31 13 l25 0 0 -171z m718 4 l-3 -168 -27 -3 -28 -3 0
170 0 171 30 0 30 0 -2 -167z m-640 -76 l3 -128 -28 3 -28 3 -3 114 c-1 63 0
121 3 129 3 7 15 12 27 10 22 -3 23 -7 26 -131z m557 3 l0 -125 -27 -3 -28 -3
0 124 c0 68 3 127 7 131 4 4 16 6 28 4 19 -3 20 -10 20 -128z"/>
<path d="M811 1911 c-12 -12 -21 -28 -21 -36 0 -29 24 -66 48 -72 63 -15 111
41 81 95 -20 36 -78 43 -108 13z m87 -43 c6 -47 -59 -62 -73 -17 -9 27 13 51
44 47 20 -2 27 -9 29 -30z"/>
<path d="M1211 1754 c-52 -44 -38 -129 25 -159 102 -48 194 77 115 156 -39 39
-96 40 -140 3z"/>
<path d="M1052 1499 c-64 -38 -82 -62 -82 -112 0 -57 55 -110 133 -127 31 -7
57 -16 57 -20 0 -4 -11 -17 -24 -29 -13 -13 -27 -34 -30 -47 -9 -34 17 -89 52
-109 l30 -18 -38 -36 c-71 -68 -60 -164 26 -240 l45 -39 -21 -35 c-27 -46 -19
-93 26 -153 19 -24 34 -49 34 -54 0 -6 9 -10 20 -10 11 0 20 4 20 9 0 5 16 32
35 61 42 62 48 123 15 157 l-19 21 45 37 c56 46 74 81 74 142 0 53 -25 104
-60 123 -21 11 -21 13 19 47 35 29 41 40 41 73 0 30 -8 48 -31 75 -28 32 -29
35 -10 35 40 0 130 41 156 71 48 58 29 123 -54 174 -64 40 -114 46 -131 16
-12 -24 -5 -30 64 -51 61 -19 94 -57 77 -89 -15 -27 -51 -45 -121 -61 -30 -6
-63 -14 -72 -17 -16 -4 -18 6 -18 116 l0 121 -30 0 -30 0 0 -120 0 -120 -27 6
c-148 32 -193 55 -193 95 0 26 52 65 105 78 39 10 46 15 43 34 -5 36 -61 34
-126 -4z m198 -354 c0 -36 -2 -65 -5 -65 -16 0 -63 31 -69 45 -10 27 -7 35 20
60 44 41 54 33 54 -40z m109 39 c17 -14 31 -32 31 -39 0 -16 -56 -65 -75 -65
-10 0 -13 17 -12 65 2 73 10 78 56 39z m-104 -403 c-9 -9 -64 43 -79 74 -22
46 -11 82 35 113 l34 23 6 -103 c4 -57 5 -105 4 -107z m104 173 c44 -37 43
-81 -5 -134 -20 -22 -40 -40 -45 -40 -5 0 -9 45 -9 100 0 112 6 119 59 74z
m-99 -326 c-1 -28 -2 -30 -11 -15 -6 10 -8 25 -5 33 9 24 16 16 16 -18z m52
-10 c-10 -22 -11 -21 -11 12 -1 26 2 31 11 22 8 -8 8 -17 0 -34z"/>
<path d="M1206 917 c-5 -9 -5 -29 0 -45 7 -25 8 -26 11 -4 3 12 3 32 0 45 -3
19 -4 20 -11 4z"/>
<path d="M1336 904 c-3 -9 -6 -27 -6 -42 0 -25 1 -25 15 -6 16 22 19 50 6 58
-5 3 -12 -1 -15 -10z"/>
<path d="M2037 2008 c-55 -60 -56 -62 -39 -83 83 -106 120 -161 153 -230 40
-85 79 -212 79 -257 0 -29 14 -38 23 -15 8 21 73 48 117 49 38 0 39 1 33 32
-25 135 -94 301 -173 416 -42 62 -118 150 -129 150 -4 0 -33 -28 -64 -62z"/>
<path d="M415 1998 c-106 -118 -196 -286 -239 -445 l-24 -91 49 -4 c36 -4 60
-14 88 -36 l39 -31 7 45 c18 126 96 292 191 413 l66 83 -58 59 c-32 33 -61 59
-65 59 -4 0 -28 -24 -54 -52z"/>
<path d="M2345 1419 c-72 -20 -111 -102 -82 -172 42 -99 191 -101 233 -2 19
46 18 74 -6 112 -33 54 -89 78 -145 62z m-15 -104 l0 -65 65 0 c38 0 65 -4 65
-10 0 -7 -27 -10 -72 -8 l-73 3 -3 73 c-2 45 1 72 8 72 6 0 10 -27 10 -65z
m130 56 c0 -5 -12 -19 -26 -30 -21 -16 -30 -18 -40 -10 -11 9 -18 8 -29 -1
-20 -17 -31 -5 -14 16 8 10 22 14 40 10 17 -3 32 0 39 9 14 17 30 20 30 6z
m-70 -82 c0 -16 -4 -29 -10 -29 -5 0 -10 16 -10 36 0 21 4 33 10 29 6 -3 10
-19 10 -36z m60 6 c0 -19 -4 -35 -10 -35 -5 0 -10 16 -10 35 0 19 5 35 10 35
6 0 10 -16 10 -35z m-90 -10 c0 -14 -4 -25 -10 -25 -5 0 -10 11 -10 25 0 14 5
25 10 25 6 0 10 -11 10 -25z m60 0 c0 -14 -4 -25 -10 -25 -5 0 -10 11 -10 25
0 14 5 25 10 25 6 0 10 -11 10 -25z"/>
<path d="M120 1392 c-99 -49 -85 -202 21 -234 114 -34 211 88 149 189 -36 60
-104 78 -170 45z m119 -77 c36 -41 41 -75 11 -75 -12 0 -20 7 -20 18 0 9 -7
25 -14 35 -13 17 -15 16 -21 -12 -7 -35 -22 -48 -37 -33 -6 6 -4 20 6 41 9 17
14 31 12 31 -24 0 -59 -25 -71 -52 l-15 -33 5 35 c6 38 35 67 75 73 14 2 28 5
31 6 4 0 21 -15 38 -34z"/>
<path d="M2226 1133 c-18 -135 -118 -346 -218 -457 l-47 -53 65 -64 65 -64 35
40 c130 149 226 334 269 517 l13 58 -29 0 c-37 0 -97 25 -125 51 l-21 20 -7
-48z"/>
<path d="M300 1145 c-22 -27 -67 -45 -110 -45 -49 0 -49 -1 -15 -129 43 -158
131 -321 242 -449 l38 -43 64 65 64 65 -42 47 c-97 110 -175 270 -206 419 -9
44 -17 81 -19 82 -2 2 -9 -4 -16 -12z"/>
<path d="M1904 569 c-35 -39 -187 -133 -268 -166 -45 -18 -113 -40 -152 -49
l-71 -17 23 -41 c15 -25 24 -57 24 -83 0 -51 -1 -51 116 -17 155 44 332 139
452 243 l33 28 -61 59 c-34 33 -65 60 -69 62 -4 1 -16 -7 -27 -19z"/>
<path d="M542 513 c-29 -32 -51 -61 -50 -65 8 -22 175 -135 263 -178 95 -47
226 -90 308 -103 l37 -6 0 43 c0 23 9 59 20 81 26 51 25 55 -9 55 -48 0 -197
48 -280 90 -43 21 -109 62 -145 90 -37 27 -73 50 -79 50 -7 0 -36 -26 -65 -57z"/>
<path d="M1221 322 c-38 -20 -71 -73 -71 -112 0 -62 68 -130 130 -130 62 0
130 68 130 130 0 62 -68 130 -130 130 -14 0 -41 -8 -59 -18z m119 -73 c0 -11
-6 -19 -12 -19 -7 0 -5 -5 5 -11 9 -5 17 -21 17 -34 0 -20 -5 -25 -25 -25 -16
0 -25 -6 -25 -16 0 -12 -10 -14 -47 -12 -38 2 -49 7 -51 22 -3 11 2 24 10 30
8 6 14 25 14 41 -1 26 3 30 24 30 14 0 33 8 43 18 15 15 21 16 33 6 8 -6 14
-20 14 -30z"/>
<path d="M1280 230 c0 -5 5 -10 11 -10 5 0 7 5 4 10 -3 6 -8 10 -11 10 -2 0
-4 -4 -4 -10z"/>
</g>
</svg>
